<?xml version="1.0" encoding="UTF-8" standalone="no"?>
<svg
   width="415"
   zoomAndPan="magnify"
   viewBox="0 0 311.25 112.499997"
   height="150"
   preserveAspectRatio="xMidYMid meet"
   version="1.0"
   id="svg57"
   sodipodi:docname="logo.svg"
   inkscape:version="1.1.2 (0a00cf5339, 2022-02-04)"
   xmlns:inkscape="http://www.inkscape.org/namespaces/inkscape"
   xmlns:sodipodi="http://sodipodi.sourceforge.net/DTD/sodipodi-0.dtd"
   xmlns="http://www.w3.org/2000/svg"
   xmlns:svg="http://www.w3.org/2000/svg">
  <sodipodi:namedview
     id="namedview59"
     pagecolor="#ffffff"
     bordercolor="#666666"
     borderopacity="1.0"
     inkscape:pageshadow="2"
     inkscape:pageopacity="0.0"
     inkscape:pagecheckerboard="0"
     showgrid="false"
     inkscape:zoom="0.45254834"
     inkscape:cx="-692.74368"
     inkscape:cy="494.97475"
     inkscape:window-width="1920"
     inkscape:window-height="993"
     inkscape:window-x="0"
     inkscape:window-y="0"
     inkscape:window-maximized="1"
     inkscape:current-layer="svg57" />
  <defs
     id="defs13">
    <g
       id="g2" />
    <clipPath
       id="2fbaaf9c68">
      <path
         d="M 4.597656 1.8125 L 113.195312 1.8125 L 113.195312 110.40625 L 4.597656 110.40625 Z M 4.597656 1.8125 "
         clip-rule="nonzero"
         id="path4" />
    </clipPath>
    <clipPath
       id="29d94afe27">
      <path
         d="M 21.773438 1.8125 L 96.019531 1.8125 C 105.503906 1.8125 113.195312 9.5 113.195312 18.984375 L 113.195312 93.234375 C 113.195312 102.71875 105.503906 110.40625 96.019531 110.40625 L 21.773438 110.40625 C 12.289062 110.40625 4.597656 102.71875 4.597656 93.234375 L 4.597656 18.984375 C 4.597656 9.5 12.289062 1.8125 21.773438 1.8125 Z M 21.773438 1.8125 "
         clip-rule="nonzero"
         id="path7" />
    </clipPath>
    <clipPath
       id="fd954a929f">
      <path
         d="M 21.765625 0 L 139.769531 0 L 139.769531 88.898438 L 21.765625 88.898438 Z M 21.765625 0 "
         clip-rule="nonzero"
         id="path10" />
    </clipPath>
  </defs>
  <path
     id="rect2649"
     style="fill:#00bf63;fill-opacity:1;stroke:none;stroke-width:0.75"
     d="m 19.008704,1.9284207 c -9.5944216,0 -17.3188478,7.7244256 -17.3188478,17.3188473 v 73.95703 c 0,9.594422 7.7244262,17.318852 17.3188478,17.318852 h 73.959962 c 9.594424,0 17.318844,-7.72443 17.318844,-17.318852 V 39.692092 L 55.812903,93.916213 18.465247,56.564162 l 9.459961,-9.461425 27.887695,27.887694 54.467287,-54.417479 0.007,1.302246 v -2.62793 c 0,-9.5944217 -7.72442,-17.3188473 -17.318844,-17.3188473 z" />
  <g
     fill="#00bf63"
     fill-opacity="1"
     id="g31">
    <g
       transform="translate(124.525715, 83.432169)"
       id="g29">
      <g
         id="g27">
        <path
           d="M 41.6875 -52.015625 L 41.6875 -43.359375 L 26.6875 -43.359375 L 26.6875 0 L 16.4375 0 L 16.4375 -43.359375 L 1.421875 -43.359375 L 1.421875 -52.015625 Z M 41.6875 -52.015625 "
           id="path25" />
      </g>
    </g>
  </g>
  <g
     fill="#00bf63"
     fill-opacity="1"
     id="g39">
    <g
       transform="translate(167.640694, 83.432169)"
       id="g37">
      <g
         id="g35">
        <path
           d="M 22.796875 0.75 C 18.960938 0.75 15.59375 -0.0351562 12.6875 -1.609375 C 9.78125 -3.191406 7.523438 -5.503906 5.921875 -8.546875 C 4.316406 -11.597656 3.515625 -15.285156 3.515625 -19.609375 C 3.515625 -23.921875 4.316406 -27.601562 5.921875 -30.65625 C 7.523438 -33.71875 9.78125 -36.035156 12.6875 -37.609375 C 15.59375 -39.191406 18.960938 -39.984375 22.796875 -39.984375 C 26.640625 -39.984375 30.015625 -39.191406 32.921875 -37.609375 C 35.828125 -36.035156 38.085938 -33.71875 39.703125 -30.65625 C 41.316406 -27.601562 42.125 -23.921875 42.125 -19.609375 C 42.125 -15.285156 41.316406 -11.597656 39.703125 -8.546875 C 38.085938 -5.503906 35.828125 -3.191406 32.921875 -1.609375 C 30.015625 -0.0351562 26.640625 0.75 22.796875 0.75 Z M 22.796875 -7.609375 C 28.898438 -7.609375 31.953125 -11.609375 31.953125 -19.609375 C 31.953125 -23.753906 31.164062 -26.789062 29.59375 -28.71875 C 28.03125 -30.65625 25.765625 -31.625 22.796875 -31.625 C 16.703125 -31.625 13.65625 -27.617188 13.65625 -19.609375 C 13.65625 -11.609375 16.703125 -7.609375 22.796875 -7.609375 Z M 22.796875 -7.609375 "
           id="path33" />
      </g>
    </g>
  </g>
  <g
     fill="#00bf63"
     fill-opacity="1"
     id="g47">
    <g
       transform="translate(213.245811, 83.432169)"
       id="g45">
      <g
         id="g43">
        <path
           d="M 19.390625 0.75 C 16.285156 0.75 13.539062 0 11.15625 -1.5 C 8.769531 -3.007812 6.898438 -5.285156 5.546875 -8.328125 C 4.191406 -11.378906 3.515625 -15.140625 3.515625 -19.609375 C 3.515625 -24.085938 4.207031 -27.847656 5.59375 -30.890625 C 6.988281 -33.941406 8.910156 -36.21875 11.359375 -37.71875 C 13.816406 -39.226562 16.660156 -39.984375 19.890625 -39.984375 C 22.328125 -39.984375 24.441406 -39.5625 26.234375 -38.71875 C 28.023438 -37.882812 29.535156 -36.578125 30.765625 -34.796875 L 31.515625 -34.96875 L 31.515625 -55 L 41.375 -55 L 41.375 0 L 31.515625 0 L 31.515625 -5.09375 L 30.765625 -5.234375 C 29.679688 -3.378906 28.1875 -1.914062 26.28125 -0.84375 C 24.382812 0.21875 22.085938 0.75 19.390625 0.75 Z M 22.59375 -7.609375 C 25.363281 -7.609375 27.554688 -8.597656 29.171875 -10.578125 C 30.785156 -12.554688 31.59375 -15.566406 31.59375 -19.609375 C 31.59375 -23.640625 30.785156 -26.648438 29.171875 -28.640625 C 27.554688 -30.628906 25.363281 -31.625 22.59375 -31.625 C 19.695312 -31.625 17.484375 -30.65625 15.953125 -28.71875 C 14.421875 -26.789062 13.65625 -23.753906 13.65625 -19.609375 C 13.65625 -15.472656 14.421875 -12.4375 15.953125 -10.5 C 17.484375 -8.570312 19.695312 -7.609375 22.59375 -7.609375 Z M 22.59375 -7.609375 "
           id="path41" />
      </g>
    </g>
  </g>
  <g
     fill="#00bf63"
     fill-opacity="1"
     id="g55">
    <g
       transform="translate(260.273865, 83.432169)"
       id="g53">
      <g
         id="g51">
        <path
           d="M 22.796875 0.75 C 18.960938 0.75 15.59375 -0.0351562 12.6875 -1.609375 C 9.78125 -3.191406 7.523438 -5.503906 5.921875 -8.546875 C 4.316406 -11.597656 3.515625 -15.285156 3.515625 -19.609375 C 3.515625 -23.921875 4.316406 -27.601562 5.921875 -30.65625 C 7.523438 -33.71875 9.78125 -36.035156 12.6875 -37.609375 C 15.59375 -39.191406 18.960938 -39.984375 22.796875 -39.984375 C 26.640625 -39.984375 30.015625 -39.191406 32.921875 -37.609375 C 35.828125 -36.035156 38.085938 -33.71875 39.703125 -30.65625 C 41.316406 -27.601562 42.125 -23.921875 42.125 -19.609375 C 42.125 -15.285156 41.316406 -11.597656 39.703125 -8.546875 C 38.085938 -5.503906 35.828125 -3.191406 32.921875 -1.609375 C 30.015625 -0.0351562 26.640625 0.75 22.796875 0.75 Z M 22.796875 -7.609375 C 28.898438 -7.609375 31.953125 -11.609375 31.953125 -19.609375 C 31.953125 -23.753906 31.164062 -26.789062 29.59375 -28.71875 C 28.03125 -30.65625 25.765625 -31.625 22.796875 -31.625 C 16.703125 -31.625 13.65625 -27.617188 13.65625 -19.609375 C 13.65625 -11.609375 16.703125 -7.609375 22.796875 -7.609375 Z M 22.796875 -7.609375 "
           id="path49" />
      </g>
    </g>
  </g>
</svg>
